<?xml version="1.0" encoding="UTF-8"?>
<!-- Generated by Pixelmator Pro 3.7 -->
<svg width="24" height="24" viewBox="0 0 24 24" xmlns="http://www.w3.org/2000/svg">
    <path id="path1" fill="#da203e" fill-rule="evenodd" stroke="none" d="M 15.4791 4.97677 C 15.6201 4.89789 15.7691 4.814499 15.93 4.723141 C 15.9494 4.82848 15.9683 4.92046 15.9854 5.00383 C 16.015699 5.150909 16.0406 5.2719 16.0525 5.391439 C 16.1479 6.4296 16.669701 7.1933 17.4093 7.365271 C 18.490801 7.61639 19.510599 7.20133 20.059999 6.285549 C 20.719999 5.186729 20.433399 3.84099 19.3097 3.030979 C 16.185101 0.777435 12.7523 0.155888 9.05448 1.24127 C 1.08137 3.59371 -1.64675 13.3884 4.01196 19.394899 C 6.43292 21.964199 9.50695 23.072701 12.9963 22.988899 C 17.466299 22.8839 20.685699 20.6563 22.740801 16.795401 C 24.1978 14.0561 22.613899 11.0619 19.5805 10.4396 C 17.848101 10.0908 16.0765 9.97757 14.3137 10.103 C 13.7272 10.1594 13.1579 10.3325 12.6394 10.6124 C 12.0592 10.9135 11.8915 11.5383 11.9565 12.1575 C 12.0171 12.7217 12.4498 13.0601 12.965 13.1453 C 14.0024 13.3077 15.0522 13.402 16.1 13.4881 C 16.4032 13.5136 16.709299 13.5166 17.0149 13.5197 C 17.4534 13.5241 17.891199 13.5285 18.318701 13.5991 C 19.5385 13.8007 19.957399 14.7905 19.33 15.8495 C 19.1763 16.104099 18.997101 16.3424 18.795099 16.560699 C 17.974501 17.4632 16.9014 18.098101 15.7152 18.3827 C 13.55 18.912701 11.3827 18.942499 9.22755 18.2617 C 6.77347 17.487499 5.31042 15.6849 5.25902 13.2584 C 5.2398 11.7619 5.61972 10.2874 6.35969 8.9865 C 6.69401 8.38013 6.87751 7.755619 6.82593 7.06851 C 6.80422 6.77557 6.79219 6.482309 6.77927 6.16716 C 6.77239 5.999439 6.76526 5.82551 6.75628 5.642139 C 7.00484 5.694309 7.25032 5.76016 7.49161 5.83943 C 8.43027 6.216221 9.35415 6.388121 10.3702 6.111549 C 10.9482 5.973351 11.5455 5.93511 12.1363 5.998501 C 13.0877 6.076059 14.0387 5.843609 14.847 5.335859 C 15.0488 5.2176 15.2539 5.102791 15.4791 4.97677 Z"/>
</svg>
